<svg xmlns="http://www.w3.org/2000/svg" version="1.1" xmlns:xlink="http://www.w3.org/1999/xlink" xmlns:svgjs="http://svgjs.com/svgjs" width="272" height="75" preserveAspectRatio="none" viewBox="0 0 272 75"><g mask="url(&quot;#SvgjsMask1009&quot;)" fill="none"><path d="M128.52 46.17L134.81 46.17L134.81 52.46L128.52 52.46z" stroke="rgba(13, 40, 58, 0.51)"></path><path d="M180.14 66.65 a3.62 3.62 0 1 0 7.24 0 a3.62 3.62 0 1 0 -7.24 0z" stroke="rgba(13, 40, 58, 0.51)"></path><path d="M108.85 38.05L112.01 38.05L112.01 43.05L108.85 43.05z" stroke="rgba(13, 40, 58, 0.51)"></path><path d="M210.48 51.36L217.1 51.36L217.1 57.98L210.48 57.98z" fill="rgba(13, 40, 58, 0.51)"></path><path d="M10.06 47.43 a2.17 2.17 0 1 0 4.34 0 a2.17 2.17 0 1 0 -4.34 0z" fill="rgba(13, 40, 58, 0.51)"></path><path d="M96.99 71.16a1.68 1.68 0 1 0-1.5-3.01z" stroke="rgba(13, 40, 58, 0.51)"></path><path d="M165.91 14.82 a1.25 1.25 0 1 0 2.5 0 a1.25 1.25 0 1 0 -2.5 0z" stroke="rgba(13, 40, 58, 0.51)"></path><path d="M197.16 41.38a0.03 0.03 0 1 0-0.05-0.03z" fill="rgba(13, 40, 58, 0.51)"></path><path d="M69.52-3.69a6.08 6.08 0 1 0-8.58 8.61z" stroke="rgba(13, 40, 58, 0.51)"></path><path d="M228.8 67.31L232.86 67.31L232.86 71.37L228.8 71.37z" stroke="rgba(13, 40, 58, 0.51)"></path><path d="M98.12 37.16a0.27 0.27 0 1 0-0.27-0.47z" stroke="rgba(13, 40, 58, 0.51)"></path><path d="M247.65 13.28L254.74 13.28L254.74 20.37L247.65 20.37z" fill="rgba(13, 40, 58, 0.51)"></path><path d="M6.12 41.01 a7.23 7.23 0 1 0 14.46 0 a7.23 7.23 0 1 0 -14.46 0z" stroke="rgba(13, 40, 58, 0.51)"></path><path d="M64.22 30.92a2.59 2.59 0 1 0 2.4-4.59z" fill="rgba(13, 40, 58, 0.51)"></path><path d="M167.23 41.4 a5.14 5.14 0 1 0 10.28 0 a5.14 5.14 0 1 0 -10.28 0z" stroke="rgba(13, 40, 58, 0.51)"></path><path d="M0.31 54.28L4.53 54.28L4.53 58.5L0.31 58.5z" fill="rgba(13, 40, 58, 0.51)"></path><path d="M118.27 8.49a1.2 1.2 0 1 0 0.73-2.28z" fill="rgba(13, 40, 58, 0.51)"></path><path d="M205.92 22.34a5.29 5.29 0 1 0 8.67-6.07z" fill="rgba(13, 40, 58, 0.51)"></path><path d="M116.97 10.51 a5.77 5.77 0 1 0 11.54 0 a5.77 5.77 0 1 0 -11.54 0z" fill="rgba(13, 40, 58, 0.51)"></path><path d="M72.07 21.68L73.09 21.68L73.09 26.44L72.07 26.44z" fill="rgba(13, 40, 58, 0.51)"></path><path d="M21.52 45.61a1.91 1.91 0 1 0 3.1 2.24z" stroke="rgba(13, 40, 58, 0.51)"></path><path d="M62.59 22.78a1.48 1.48 0 1 0 2.17-2.01z" stroke="rgba(13, 40, 58, 0.51)"></path><path d="M206.44 48.72L207.01 48.72L207.01 49.62L206.44 49.62z" stroke="rgba(13, 40, 58, 0.51)"></path><path d="M50.75 69.18 a4.14 4.14 0 1 0 8.28 0 a4.14 4.14 0 1 0 -8.28 0z" fill="rgba(13, 40, 58, 0.51)"></path><path d="M22.57 7.54L25.3 7.54L25.3 10.27L22.57 10.27z" fill="rgba(13, 40, 58, 0.51)"></path><path d="M70.87 61.13 a1.78 1.78 0 1 0 3.56 0 a1.78 1.78 0 1 0 -3.56 0z" stroke="rgba(13, 40, 58, 0.51)"></path><path d="M44.7 19.24 a3.29 3.29 0 1 0 6.58 0 a3.29 3.29 0 1 0 -6.58 0z" stroke="rgba(13, 40, 58, 0.51)"></path><path d="M159.15 48.45L165.23 48.45L165.23 54.53L159.15 54.53z" stroke="rgba(13, 40, 58, 0.51)"></path><path d="M121.97 45.19a3.7 3.7 0 1 0 4.22-6.09z" stroke="rgba(13, 40, 58, 0.51)"></path><path d="M264.02 14.36L267.64 14.36L267.64 17.98L264.02 17.98z" stroke="rgba(13, 40, 58, 0.51)"></path><path d="M109.9 44.97L113.09 44.97L113.09 48.01L109.9 48.01z" stroke="rgba(13, 40, 58, 0.51)"></path><path d="M226.68 5.8L228.79 5.8L228.79 7.91L226.68 7.91z" fill="rgba(13, 40, 58, 0.51)"></path><path d="M84.96 30.38L85.74 30.38L85.74 31.16L84.96 31.16z" fill="rgba(13, 40, 58, 0.51)"></path><path d="M215.95 51.19L218.89 51.19L218.89 54.13L215.95 54.13z" fill="rgba(13, 40, 58, 0.51)"></path><path d="M34.79 52.51a6.84 6.84 0 1 0-13.68-0.22z" fill="rgba(13, 40, 58, 0.51)"></path><path d="M124.92 58.7L125.03 58.7L125.03 58.81L124.92 58.81z" fill="rgba(13, 40, 58, 0.51)"></path><path d="M169.1 33.54L170.12 33.54L170.12 33.73L169.1 33.73z" fill="rgba(13, 40, 58, 0.51)"></path><path d="M189.11 55.58 a4.92 4.92 0 1 0 9.84 0 a4.92 4.92 0 1 0 -9.84 0z" stroke="rgba(13, 40, 58, 0.51)"></path><path d="M118.89 31.13L121.56 31.13L121.56 33.8L118.89 33.8z" fill="rgba(13, 40, 58, 0.51)"></path><path d="M176.99 36.1 a6.12 6.12 0 1 0 12.24 0 a6.12 6.12 0 1 0 -12.24 0z" stroke="rgba(13, 40, 58, 0.51)"></path><path d="M185.04 15.45L188.11 15.45L188.11 20.95L185.04 20.95z" fill="rgba(13, 40, 58, 0.51)"></path><path d="M259.11 54.1L261.87 54.1L261.87 56.39L259.11 56.39z" stroke="rgba(13, 40, 58, 0.51)"></path><path d="M45.4 62.37a6.21 6.21 0 1 0-8.87-8.68z" stroke="rgba(13, 40, 58, 0.51)"></path><path d="M30.73 30.95a5.61 5.61 0 1 0 11.22-0.12z" fill="rgba(13, 40, 58, 0.51)"></path><path d="M45.9 55.54 a6.67 6.67 0 1 0 13.34 0 a6.67 6.67 0 1 0 -13.34 0z" fill="rgba(13, 40, 58, 0.51)"></path><path d="M153.73 34.56L156.34 34.56L156.34 35.77L153.73 35.77z" fill="rgba(13, 40, 58, 0.51)"></path></g><defs><mask id="SvgjsMask1009"><rect width="272" height="75" fill="#ffffff"></rect></mask></defs></svg>