<svg xmlns="http://www.w3.org/2000/svg" version="1.1" xmlns:xlink="http://www.w3.org/1999/xlink" xmlns:svgjs="http://svgjs.com/svgjs" width="272" height="75" preserveAspectRatio="none" viewBox="0 0 272 75"><g mask="url(&quot;#SvgjsMask1010&quot;)" fill="none"><circle r="1.175" cx="114.545" cy="71.505" filter="url(#SvgjsFilter1011)" fill="rgba(13, 40, 58, 0.54)"></circle><circle r="0.77" cx="116.77" cy="33.68" filter="url(#SvgjsFilter1011)" fill="rgba(13, 40, 58, 0.54)"></circle><circle r="1.015" cx="238.355" cy="1.9249999999999998" filter="url(#SvgjsFilter1011)" fill="rgba(13, 40, 58, 0.54)"></circle><circle r="0.63" cx="131.73" cy="54.080000000000005" filter="url(#SvgjsFilter1011)" fill="rgba(13, 40, 58, 0.54)"></circle><circle r="1.11" cx="159.32000000000002" cy="50.96" filter="url(#SvgjsFilter1011)" fill="rgba(13, 40, 58, 0.54)"></circle><circle r="0.895" cx="30.985" cy="24.375" filter="url(#SvgjsFilter1011)" fill="rgba(13, 40, 58, 0.54)"></circle><circle r="0.755" cx="173.245" cy="68.935" filter="url(#SvgjsFilter1011)" fill="rgba(13, 40, 58, 0.54)"></circle><circle r="0.815" cx="211.255" cy="26.965" filter="url(#SvgjsFilter1011)" fill="rgba(13, 40, 58, 0.54)"></circle><circle r="0.86" cx="24.939999999999998" cy="4.23" filter="url(#SvgjsFilter1011)" fill="rgba(13, 40, 58, 0.54)"></circle><circle r="1.245" cx="79.795" cy="3.365" filter="url(#SvgjsFilter1011)" fill="rgba(13, 40, 58, 0.54)"></circle><circle r="0.745" cx="29.165000000000003" cy="55.315" filter="url(#SvgjsFilter1011)" fill="rgba(13, 40, 58, 0.54)"></circle><circle r="1.02" cx="146.74" cy="51.18" filter="url(#SvgjsFilter1011)" fill="rgba(13, 40, 58, 0.54)"></circle><circle r="1.22" cx="261.97" cy="51.74" filter="url(#SvgjsFilter1011)" fill="rgba(13, 40, 58, 0.54)"></circle><circle r="1.075" cx="220.80499999999998" cy="55.505" filter="url(#SvgjsFilter1011)" fill="rgba(13, 40, 58, 0.54)"></circle><circle r="0.905" cx="139.395" cy="3.2249999999999996" filter="url(#SvgjsFilter1011)" fill="rgba(13, 40, 58, 0.54)"></circle><circle r="0.865" cx="84.80499999999999" cy="74.595" filter="url(#SvgjsFilter1011)" fill="rgba(13, 40, 58, 0.54)"></circle><circle r="0.96" cx="216.05" cy="36.25" filter="url(#SvgjsFilter1011)" fill="rgba(13, 40, 58, 0.54)"></circle><circle r="0.905" cx="187.785" cy="31.465" filter="url(#SvgjsFilter1011)" fill="rgba(13, 40, 58, 0.54)"></circle><circle r="0.645" cx="214.305" cy="11.385" filter="url(#SvgjsFilter1011)" fill="rgba(13, 40, 58, 0.54)"></circle><circle r="0.71" cx="144.76000000000002" cy="3.9699999999999998" filter="url(#SvgjsFilter1011)" fill="rgba(13, 40, 58, 0.54)"></circle><path d="M143.7 32L139.1 23.1 141.8 14.6 147.8 21.2 147.3 31.3C147.3 31.3 147.3 31.4 147.3 31.4 147.3 31.6 147.6 31.8 147.9 31.9 148.3 31.9 148.6 31.6 148.5 31.2L148.9 22.5 151.9 25.7 151.7 29.5C151.7 29.5 151.7 29.7 151.7 29.7 151.8 29.9 152.1 30.1 152.3 30.1 152.7 30.2 153 29.9 152.9 29.5L153.1 26.9 155.2 29.3C155.4 29.5 155.9 29.5 156.1 29.3 156.4 29.1 156.3 28.7 156.2 28.4L154 26.1 156.7 26.2C157.1 26.3 157.4 26 157.3 25.6 157.3 25.2 157 24.9 156.7 25L152.8 24.9 150 21.6 158.7 22.1C159.1 22.1 159.4 21.8 159.3 21.4 159.4 21.1 159.1 20.8 158.7 20.8L148.7 20.3 142.7 13.7 151.5 11.8 160 17.2C160.3 17.4 160.7 17.3 160.9 17 161 16.7 161 16.4 160.7 16.2L153.2 11.4 157.4 10.5 160.6 12.5C160.9 12.7 161.3 12.6 161.4 12.3 161.6 12 161.5 11.7 161.3 11.5L159.1 10.1 162.4 9.4C162.8 9.4 162.9 9 162.9 8.7 162.8 8.3 162.5 8.1 162.2 8.2L159.1 8.9 160.5 6.7C160.7 6.4 160.6 6.1 160.3 5.9S159.6 5.8 159.5 6.1L157.4 9.2 153.2 10.2 158 2.7C158.2 2.4 158.1 2 157.8 1.9 157.5 1.7 157.2 1.8 157 2L151.5 10.5 142.8 12.4 145.5 3.9 154.2-0.6C154.5-0.8 154.5-1.1 154.5-1.5 154.3-1.8 153.9-1.9 153.5-1.8L145.8 2.3 147.1-1.9 150.5-3.6C150.9-3.8 150.9-4.2 150.8-4.5 150.6-4.9 150.3-4.9 150-4.9L147.7-3.6 148.6-6.7C148.7-6.9 148.6-7.4 148.2-7.4 147.8-7.5 147.5-7.4 147.4-7L146.5-4 145.3-6.3C145.1-6.6 144.7-6.7 144.4-6.6 144.2-6.4 144-6.2 144.1-5.9 144.1-5.9 144.1-5.8 144.1-5.8L145.9-2.3 144.5 1.8 140.5-6C140.3-6.3 139.9-6.4 139.7-6.3 139.5-6.1 139.3-5.9 139.3-5.6 139.3-5.6 139.4-5.5 139.4-5.5L144 3.4 141.3 11.9 135.3 5.3 135.8-4.7C135.9-5.1 135.5-5.4 135.2-5.3 134.8-5.4 134.5-5.1 134.6-4.7L134.1 4 131.2 0.8 131.4-3C131.4-3.4 131.1-3.7 130.7-3.6 130.4-3.7 130.1-3.4 130.1-3L130-0.4 127.8-2.7C127.7-3 127.2-3 127-2.8 126.8-2.6 126.7-2.4 126.7-2.1 126.8-2 126.8-1.9 126.9-1.8L129.1 0.6 126.4 0.4C126 0.4 125.7 0.7 125.8 1 125.8 1 125.8 1.2 125.8 1.2 125.9 1.4 126.2 1.6 126.4 1.6L130.3 1.8 133.2 5 124.5 4.5C124.1 4.5 123.8 4.8 123.9 5.2 123.9 5.2 123.9 5.3 123.9 5.3 124 5.5 124.2 5.7 124.5 5.8L134.5 6.3 140.5 12.9 131.8 14.8 123.3 9.4C123 9.2 122.7 9.3 122.5 9.6 122.3 9.8 122.4 10.2 122.7 10.4L130 15.2 125.8 16.1 122.6 14.1C122.3 13.9 122 14 121.8 14.3S121.7 14.9 122 15.1L124.1 16.5 121 17.2C120.7 17.2 120.5 17.5 120.6 17.9 120.7 18.2 121 18.4 121.3 18.4L124.4 17.7 123 19.8C122.9 20 122.8 20.1 122.9 20.4S123.1 20.7 123.2 20.8C123.5 21 123.8 20.9 124 20.6L126.1 17.4 130.3 16.5 125.5 24C125.4 24.1 125.3 24.3 125.4 24.5 125.4 24.6 125.6 24.8 125.7 24.9 126 25.1 126.4 25 126.5 24.8L132 16.3 140.7 14.4 138 22.9 129.1 27.5C128.9 27.7 128.7 28 128.8 28.2 128.8 28.2 128.8 28.3 128.8 28.3 129 28.7 129.4 28.7 129.6 28.7L137.4 24.6 136.1 28.7 132.6 30.5C132.4 30.7 132.2 30.9 132.3 31.2 132.3 31.2 132.3 31.3 132.3 31.3 132.5 31.6 132.9 31.7 133.1 31.6L135.4 30.4 134.5 33.4C134.5 33.5 134.4 33.7 134.4 33.8 134.5 34 134.7 34.2 134.9 34.3 135.3 34.4 135.7 34.3 135.7 33.9L136.6 30.8 137.9 33.2C138.1 33.5 138.5 33.5 138.7 33.5 139 33.3 139.1 32.9 139 32.7L137.3 29.2 138.6 25.1 142.7 32.9C142.9 33.2 143.2 33.2 143.5 33.2 143.7 32.8 143.9 32.4 143.7 32Z" fill="rgba(13, 40, 58, 0.54)"></path><path d="M209.7 46L200.3 42.5 199.1 40 202.7 35 205.5 35.2 211.8 43C211.9 43 211.9 43 212 43.1 212.2 43.2 212.5 43.3 212.8 43.1 213 42.8 213.1 42.5 212.8 42.2L207.2 35.4 211.6 35.8 214.1 38.8C214.1 38.8 214.2 38.8 214.2 38.8 214.4 39 214.6 39 214.9 38.8 215.2 38.7 215.2 38.2 215 37.9L213.4 35.9 216.6 36.2C216.8 36.3 217.2 36.1 217.3 35.7S217 35 216.6 34.9L213.5 34.7 215.4 33.1C215.7 32.8 215.7 32.4 215.5 32.1 215.3 31.9 215 31.8 214.6 32.1L211.7 34.6 207.3 34.1 214 28.5C214.3 28.3 214.4 27.9 214.2 27.6 213.9 27.4 213.6 27.3 213.3 27.5L205.6 34 202.7 33.7 200.2 28.2 201.9 25.9 211.7 24.1C212 24 212.2 23.7 212.2 23.4S211.8 22.8 211.5 22.9L202.8 24.5 205.4 20.8 209.1 20.2C209.5 20.1 209.7 19.8 209.7 19.4S209.3 18.8 209 18.9L206.4 19.4 208.3 16.8C208.5 16.5 208.3 16.1 208 15.9 207.7 15.7 207.4 15.7 207.2 16L205.3 18.7 204.9 16.2C204.9 15.7 204.6 15.5 204.2 15.7 203.8 15.7 203.6 16 203.7 16.4L204.3 20.1 201.7 23.7 200.3 15C200.3 14.7 199.9 14.4 199.5 14.5S199 14.8 199 15.2L200.8 25.1 199.1 27.5 193 26.9 191.9 24.3 195.4 14.9C195.5 14.6 195.2 14.3 195 14 194.6 13.9 194.3 14.2 194.1 14.5L191.1 22.7 189.3 18.8 190.6 15.1C190.7 14.8 190.5 14.5 190.2 14.3 190 14.2 189.5 14.4 189.4 14.7L188.5 17.1 187.2 14.2C187 13.9 186.7 13.8 186.3 13.9 186 14.1 185.9 14.5 186 14.7L187.4 17.6 184.9 16.7C184.7 16.7 184.2 16.9 184.2 17.1 184 17.4 184.1 17.7 184.4 17.9 184.4 17.9 184.5 17.9 184.5 17.9L188.1 19.3 190 23.2 181.7 20.2C181.3 20.1 181 20.2 180.9 20.6 180.8 20.9 180.9 21.2 181.1 21.3 181.2 21.4 181.2 21.4 181.2 21.4L190.7 24.8 191.9 27.4 188.3 32.5 185.6 32.2 179.1 24.4C178.9 24.2 178.5 24.2 178.3 24.3 177.9 24.5 177.9 25 178.2 25.3L183.8 32 179.4 31.7 176.9 28.7C176.7 28.4 176.3 28.3 176.1 28.6 175.8 28.8 175.8 29.3 175.9 29.5L177.7 31.4 174.5 31.1C174.2 31.2 173.8 31.4 173.7 31.8 173.8 31.9 173.9 32.2 174.1 32.3 174.2 32.4 174.2 32.4 174.4 32.4L177.5 32.7 175.6 34.4C175.3 34.6 175.3 35 175.5 35.2 175.6 35.3 175.6 35.3 175.7 35.4 175.9 35.5 176.1 35.5 176.4 35.4L179.3 32.9 183.6 33.3 176.9 38.9C176.7 39.2 176.6 39.5 176.8 39.7 176.9 39.9 176.9 39.9 177 40 177.2 40.1 177.5 40.1 177.7 39.9L185.5 33.4 188.2 33.7 190.8 39.2 189.2 41.5 179.3 43.2C178.9 43.3 178.7 43.7 178.7 44S179.2 44.6 179.5 44.6L188.2 43 185.7 46.5 181.9 47.3C181.5 47.3 181.3 47.6 181.4 48 181.5 48.3 181.8 48.5 182.1 48.5L184.6 48 182.7 50.7C182.6 50.9 182.6 51.3 182.9 51.5 183.2 51.7 183.7 51.7 183.8 51.5L185.7 48.8 186.1 51.3C186.2 51.5 186.2 51.7 186.3 51.7 186.5 51.9 186.7 51.8 186.8 51.8 187.2 51.7 187.4 51.5 187.3 51.1L186.7 47.3 189.3 43.8 190.7 52.4C190.7 52.6 190.8 52.7 191 52.8 191.1 52.9 191.2 53 191.4 52.9 191.7 52.9 192 52.5 191.9 52.1L190.3 42.3 191.9 40 197.9 40.5 199.2 43.1 195.6 52.5C195.6 52.8 195.7 53.1 195.9 53.3 195.9 53.4 195.9 53.4 196 53.3 196.3 53.5 196.7 53.3 196.8 52.9L199.8 44.7 201.7 48.7 200.4 52.3C200.3 52.6 200.5 52.8 200.7 53 200.7 53 200.8 53 200.8 53 201.1 53.2 201.5 53.1 201.6 52.7L202.4 50.2 203.8 53.1C203.8 53.3 203.9 53.4 204 53.4 204.2 53.6 204.5 53.6 204.6 53.5 205 53.3 205.1 53 205 52.6L203.7 49.8 206 50.7C206.3 50.8 206.8 50.6 206.9 50.2 206.9 50 206.7 49.6 206.5 49.5L202.9 48.2 201 44.2 209.3 47.2C209.7 47.3 210 47.1 210.2 46.8 210.2 46.5 210.1 46.1 209.7 46ZM201.2 34.8L198.4 38.7 198 39.3 197.3 39.2 192.7 38.8 191.9 38.7 191.6 38 189.7 33.9 189.4 33.2 189.8 32.6 192.6 28.8 193 28.2 193.7 28.2 198.3 28.7 199 28.7 199.4 29.4 201.3 33.6 201.6 34.2 201.2 34.8Z" fill="rgba(13, 40, 58, 0.54)"></path><path d="M51.1 11.3L52.5 14.8 50 14.6C49.7 14.5 49.4 14.7 49.3 15.1 49.3 15.4 49.6 15.8 49.8 15.8L53.2 16.2 54.5 19.5 47.7 18.6C47.3 18.6 47 18.8 47 19.1 46.9 19.5 47.1 19.8 47.5 19.8L55 20.8 56.3 23.7 51.9 29.6 49.1 29.3 46 21.9C45.9 21.8 45.8 21.7 45.7 21.7 45.6 21.6 45.4 21.5 45.2 21.6 44.8 21.7 44.7 22.1 44.9 22.4L47.7 29.2 44.2 28.7 42.7 25.3C42.8 25.2 42.7 25.1 42.6 25 42.4 24.9 42.1 24.9 41.9 25 41.6 25.1 41.5 25.5 41.6 25.8L42.8 28.6 38.5 28C38.3 28 37.9 28.2 37.8 28.6 37.9 28.9 38.1 29.2 38.4 29.3L42.4 29.7 40.9 31.8C40.7 32.1 40.8 32.5 41 32.6 41.3 32.8 41.7 32.9 41.9 32.6L43.9 30 47.3 30.4 43.3 35.8C43 36.1 43.1 36.5 43.4 36.7 43.7 36.9 44 36.8 44.2 36.6L48.7 30.6 51.7 30.8 54.6 37.7 52.9 39.9 45.3 39C44.9 38.9 44.5 39.2 44.6 39.5 44.5 39.9 44.7 40.1 45.1 40.2L52 41.1 49.9 43.9 46.5 43.4C46.2 43.3 45.9 43.7 45.8 43.9S46.1 44.6 46.4 44.7L49.1 45 46.5 48.4C46.3 48.7 46.5 49.1 46.7 49.3 46.9 49.5 47.4 49.5 47.6 49.2L50.1 45.8 51.3 48.3C51.4 48.6 51.7 48.8 52.1 48.6 52.3 48.5 52.5 48.1 52.4 47.8L51 44.7 53.1 41.9 55.8 48.3C56.1 48.6 56.3 48.8 56.8 48.7 57 48.5 57.2 48.1 57.1 47.8L54 40.7 55.6 38.5 63 39.3 64.1 42.1 59.6 48.1C59.4 48.4 59.4 48.7 59.7 48.9 60 49.2 60.5 49.2 60.7 48.9L64.7 43.5 66.1 46.6 64.2 49.3C64 49.5 64 49.9 64.3 50.1 64.6 50.3 64.9 50.3 65.1 50L66.7 47.9 68.2 51.7C68.4 51.9 68.8 52.1 69.1 52 69.4 51.8 69.6 51.5 69.4 51.2L67.8 47.3 70.7 47.6C71 47.6 71.3 47.4 71.4 47.1 71.4 46.8 71.3 46.6 71.1 46.4 71.1 46.4 71 46.4 70.9 46.4L67.2 45.9 65.8 42.7 73 43.5C73.4 43.6 73.7 43.4 73.7 43 73.7 42.8 73.7 42.6 73.5 42.5 73.4 42.4 73.3 42.3 73.2 42.3L65.2 41.4 64.2 38.8 68.6 32.9 71.7 33.3 74.7 40.2C74.9 40.6 75.2 40.8 75.5 40.5 75.9 40.5 76 40.1 75.9 39.7L73.2 33.5 76.7 33.8 78 36.9C78.1 37.2 78.4 37.3 78.8 37.2 79.1 37 79.3 36.7 79.1 36.4L78.2 34 81.9 34.5C82.3 34.6 82.5 34.3 82.6 33.9 82.6 33.8 82.5 33.5 82.3 33.4 82.3 33.4 82.2 33.3 82.1 33.2L78.1 32.8 79.9 30.3C80 30.2 80 29.7 79.8 29.5 79.5 29.3 79.1 29.4 78.9 29.6L76.7 32.6 73.2 32.3 77.6 26.4C77.8 26.1 77.7 25.7 77.4 25.4S76.7 25.3 76.5 25.6L71.7 32 68.8 31.7 65.9 24.8 67.8 22.3 75.5 23.3C75.8 23.2 76.2 23 76.3 22.7 76.2 22.5 76.1 22.2 75.9 22.1 75.8 22 75.7 22 75.6 22L68.6 21.2 70.7 18.4 74.2 18.7C74.5 18.8 74.8 18.5 74.9 18.2 74.9 17.8 74.7 17.5 74.4 17.5L71.6 17.2 73.9 14.1C74.1 13.9 74 13.4 73.8 13.3 73.5 13 73 13.1 72.9 13.3L70.5 16.4 69.6 13.9C69.5 13.8 69.4 13.7 69.3 13.6 69.1 13.5 68.8 13.4 68.7 13.5 68.3 13.7 68.2 14 68.3 14.4L69.7 17.6 67.6 20.4 64.8 13.9C64.7 13.5 64.3 13.4 64.1 13.5 63.7 13.7 63.6 14 63.6 14.4L66.7 21.5 64.8 24 57.4 23.2 56.3 20.5 61.1 14C61.4 13.7 61.3 13.4 61 13.2 60.7 13 60.4 13 60.2 13.3L55.7 19.2 54.4 15.9 56.7 12.9C56.8 12.7 56.7 12.2 56.4 12 56.2 11.8 55.7 11.9 55.6 12.1L53.8 14.6 52.2 10.8C52.1 10.7 52.1 10.7 52 10.7 51.8 10.5 51.6 10.5 51.4 10.5 51.1 10.7 51 11.1 51.1 11.3ZM63.9 25.2L64.7 25.3 65 26 67.3 31.5 67.6 32.2 67.2 32.8 63.6 37.5 63.2 38.1 62.5 38 56.5 37.3 55.8 37.2 55.5 36.5 53.2 31 52.8 30.3 53.3 29.7 56.8 25 57.3 24.4 58.1 24.6 63.9 25.2Z" fill="rgba(13, 40, 58, 0.54)"></path><path d="M3.9 10.7L3.7 5.8 4.9 4.6 5 6.2C4.9 6.4 5.1 6.5 5.3 6.5 5.4 6.5 5.6 6.3 5.5 6.2L5.5 3.9 6.6 2.6 7.1 4.3 6.1 6.3C6.1 6.3 6.1 6.3 6.1 6.3 6 6.5 6.1 6.6 6.2 6.7 6.4 6.7 6.5 6.7 6.6 6.5L7.4 5.1 7.9 6.7 5.7 11C5.7 11 5.6 11.1 5.6 11.1 5.6 11.2 5.7 11.3 5.8 11.4 6 11.5 6.2 11.4 6.2 11.3L8.1 7.5 8.8 9.5 8 11.2C8 11.2 8 11.2 8 11.3 7.9 11.4 8 11.5 8.1 11.6 8.2 11.6 8.4 11.6 8.5 11.5L9.1 10.3 9.6 11.8C9.6 12 9.8 12 9.9 12 10.1 12 10.2 11.8 10.1 11.6L9.7 10.2 10.7 10.8C10.9 10.8 11.1 10.8 11.1 10.6 11.2 10.4 11.2 10.3 11 10.2L9.4 9.4 8.7 7.4 12.5 9.3C12.6 9.4 12.8 9.3 12.9 9.1 13 9 12.9 8.8 12.8 8.7L8.5 6.6 8 4.9 9.4 5.7C9.6 5.7 9.7 5.7 9.8 5.5 9.9 5.4 9.8 5.2 9.7 5.1L7.7 4.1 7.1 2.4 8.9 2.8 10.1 4.7C10.2 4.8 10.3 4.9 10.5 4.8 10.6 4.7 10.7 4.5 10.6 4.4L9.7 3 11.4 3.4 14 7.4C14.1 7.6 14.2 7.6 14.4 7.5 14.5 7.4 14.6 7.3 14.5 7.1L12.2 3.5 14.2 4 15.3 5.6C15.3 5.7 15.5 5.7 15.7 5.6 15.8 5.6 15.8 5.4 15.8 5.2L15.1 4.2 16.6 4.5C16.8 4.5 16.9 4.4 17 4.3 17 4.1 16.9 3.9 16.7 3.9L15.2 3.6 16.3 2.9C16.4 2.8 16.4 2.7 16.3 2.5S16.1 2.3 15.9 2.4L14.4 3.4 12.4 2.9 15.9 0.7C16 0.6 16.1 0.4 16 0.3 15.9 0.1 15.7 0.1 15.6 0.2L11.5 2.8 9.8 2.4 11.2 1.5C11.3 1.4 11.4 1.2 11.3 1.1 11.2 1 11 0.9 10.9 1L9 2.2 7.3 1.9 8.5 0.6 10.7 0.5C10.9 0.5 11 0.3 11 0.2 11 0 10.8-0.1 10.7-0.1L9-0.1 10.2-1.3 15-1.6C15.2-1.6 15.3-1.7 15.3-1.9 15.3-2 15.1-2.1 15-2.2L10.8-2 12.2-3.5 14-3.6C14.2-3.6 14.3-3.7 14.3-3.9 14.3-4.1 14.1-4.2 14-4.2L12.8-4.1 13.8-5.3C13.9-5.4 13.9-5.6 13.7-5.7 13.6-5.8 13.4-5.8 13.4-5.7L12.3-4.5 12.3-5.8C12.2-6 12.1-6.1 11.9-6 11.8-6.1 11.7-6 11.7-5.9 11.6-5.8 11.6-5.8 11.6-5.7L11.7-3.9 10.3-2.4 10.1-6.6C10.1-6.7 10-6.8 9.8-6.9 9.6-6.9 9.6-6.7 9.5-6.6 9.5-6.6 9.5-6.6 9.5-6.6L9.7-1.7 8.6-0.5 8.5-2.1C8.5-2.3 8.4-2.4 8.2-2.4 8.1-2.4 7.9-2.3 7.9-2.2 7.9-2.1 7.9-2.1 7.9-2L8 0.2 6.9 1.5 6.3-0.1 7.3-2.2C7.4-2.3 7.4-2.5 7.2-2.6 7.1-2.6 6.9-2.6 6.8-2.4L6.1-1 5.5-2.6 7.8-7C7.8-7.1 7.8-7.3 7.7-7.3 7.5-7.4 7.3-7.4 7.2-7.2L5.3-3.5 4.6-5.5 5.5-7.1C5.6-7.2 5.5-7.4 5.3-7.5 5.2-7.6 5-7.5 4.9-7.4L4.4-6.3 3.9-7.7C3.9-7.9 3.7-8 3.5-7.9 3.4-7.9 3.4-7.8 3.3-7.7 3.3-7.7 3.3-7.6 3.3-7.5L3.8-6.1 2.7-6.6C2.6-6.7 2.4-6.6 2.3-6.5 2.3-6.5 2.3-6.5 2.3-6.5 2.2-6.3 2.3-6.1 2.4-6.1L4.1-5.3 4.7-3.3 0.9-5.2C0.8-5.2 0.6-5.2 0.5-5 0.5-5 0.5-5 0.5-5 0.5-4.9 0.5-4.7 0.7-4.6L5-2.4 5.5-0.8 4.1-1.6C3.9-1.6 3.7-1.6 3.6-1.4 3.6-1.4 3.6-1.4 3.6-1.4 3.6-1.2 3.6-1.1 3.7-1L5.8 0 6.3 1.6 4.6 1.3 3.4-0.6C3.3-0.7 3.1-0.8 2.9-0.7 2.9-0.6 2.8-0.4 2.8-0.3L3.8 1.1 2.1 0.7-0.5-3.3C-0.6-3.4-0.8-3.5-0.9-3.4-1.1-3.3-1.1-3.1-1-3L1.2 0.5-0.8 0.1-1.8-1.4C-1.9-1.6-2.1-1.6-2.2-1.5S-2.4-1.2-2.3-1.1L-1.6-0.1-3.1-0.4C-3.3-0.4-3.4-0.3-3.5-0.2-3.5 0-3.4 0.2-3.3 0.2L-1.8 0.5-2.8 1.2C-2.9 1.3-2.9 1.3-3 1.4-3 1.4-2.9 1.6-2.9 1.6-2.8 1.8-2.6 1.8-2.5 1.7L-0.9 0.7 1.1 1.1-2.4 3.5C-2.5 3.5-2.6 3.6-2.6 3.6-2.6 3.7-2.5 3.8-2.5 3.9-2.4 4-2.2 4.1-2.1 4L1.9 1.3 3.7 1.7 2.2 2.6C2.2 2.6 2.1 2.7 2.1 2.8 2.1 2.8 2.1 2.9 2.1 3 2.2 3.1 2.5 3.2 2.6 3.1L4.5 1.9 6.1 2.2 5 3.5 2.8 3.6C2.6 3.6 2.5 3.7 2.5 3.8 2.4 3.9 2.4 3.9 2.5 3.9 2.5 4.1 2.6 4.2 2.8 4.2L4.4 4.1 3.3 5.4-1.6 5.6C-1.7 5.7-1.8 5.8-1.8 5.9-1.8 5.9-1.8 5.9-1.8 5.9-1.8 6.1-1.7 6.3-1.5 6.3L2.7 6.1 1.3 7.6-0.5 7.7C-0.7 7.7-0.8 7.8-0.8 7.9-0.8 7.9-0.9 8-0.9 8-0.8 8.2-0.7 8.3-0.6 8.3L0.7 8.2-0.3 9.4C-0.4 9.4-0.4 9.5-0.4 9.5-0.4 9.6-0.4 9.7-0.3 9.8-0.2 9.9 0 9.9 0.1 9.8L1.2 8.6 1.2 9.9C1.2 10.1 1.4 10.2 1.5 10.2 1.7 10.2 1.8 10 1.8 9.8L1.7 8 3.1 6.5 3.3 10.6C3.4 10.8 3.5 11 3.6 11 3.8 10.9 4 10.8 3.9 10.7Z" fill="rgba(13, 40, 58, 0.54)"></path><path d="M229.6 1.2L228.4-0.2 229.6-0.5C229.7-0.5 229.9-0.7 229.9-0.9 229.8-1 229.6-1.1 229.5-1.1L227.9-0.8 226.7-2.1 230-2.8C230.2-2.9 230.3-3 230.3-3.2 230.3-3.4 230.1-3.5 229.9-3.4L226.2-2.6 225.1-3.8 226.2-7.3 227.6-7.6 230.3-4.6C230.3-4.6 230.4-4.6 230.4-4.6 230.5-4.5 230.6-4.6 230.7-4.6 230.9-4.7 230.9-4.9 230.7-5L228.3-7.8 230-8.1 231.3-6.8C231.3-6.7 231.3-6.7 231.4-6.7 231.5-6.6 231.6-6.7 231.7-6.8 231.8-6.9 231.8-7.1 231.7-7.2L230.7-8.3 232.8-8.8C232.9-8.8 233-8.9 233-9.1 233-9.3 232.8-9.4 232.7-9.4L230.7-8.9 231.1-10.1C231.1-10.3 231-10.5 230.9-10.5 230.7-10.6 230.5-10.5 230.4-10.3L229.9-8.8 228.2-8.4 229.3-11.7C229.3-11.8 229.2-12 229.1-12 228.9-12.1 228.7-12 228.7-11.8L227.6-8.3 226.1-7.9 223.6-10.6 224-12 227.8-12.8C228-12.8 228.1-13 228-13.2 228-13.4 227.9-13.4 227.7-13.4L224.3-12.7 224.8-14.3 226.5-14.7C226.6-14.7 226.7-14.9 226.7-15.1S226.5-15.3 226.3-15.3L225-15 225.6-17C225.7-17.2 225.6-17.4 225.4-17.4 225.3-17.5 225.1-17.4 225-17.2L224.4-15.2 223.4-16.2C223.3-16.3 223.1-16.4 223-16.2 222.9-16.1 222.9-15.9 223-15.8L224.2-14.5 223.6-12.9 221.3-15.4C221.1-15.6 220.9-15.6 220.8-15.5 220.7-15.4 220.7-15.1 220.8-15L223.4-12.2 223-10.8 219.4-10 218.4-11.2 219.5-14.7C219.6-14.9 219.5-15.1 219.3-15.1 219.2-15.2 218.9-15.1 218.9-14.9L217.9-11.7 216.7-13 217.2-14.5C217.2-14.7 217.1-14.8 217-14.9 216.8-15 216.7-14.9 216.6-14.7L216.2-13.5 214.9-15C214.8-15.1 214.5-15.1 214.4-15 214.3-14.9 214.2-14.7 214.4-14.6L215.8-13 214.4-12.7C214.2-12.6 214.1-12.4 214.1-12.3 214.2-12.2 214.2-12.1 214.4-12 214.4-12 214.4-12 214.5-12.1L216.3-12.4 217.5-11.2 214-10.3C213.8-10.3 213.6-10.2 213.7-10 213.7-9.9 213.8-9.8 213.9-9.8 214-9.8 214-9.7 214.1-9.7L218-10.7 218.9-9.6 217.8-6.1 216.2-5.8 213.7-8.5C213.6-8.7 213.4-8.7 213.3-8.5 213.1-8.5 213.1-8.3 213.2-8.1L215.6-5.6 213.8-5.2 212.7-6.4C212.6-6.5 212.4-6.5 212.3-6.4 212.2-6.3 212.1-6.1 212.3-6L213.1-5 211.3-4.6C211.1-4.6 211-4.4 211-4.2 211.1-4.2 211.1-4.1 211.3-4 211.3-4 211.3-4 211.4-4L213.4-4.4 212.9-3C212.9-2.9 212.9-2.7 213.1-2.6 213.3-2.6 213.4-2.7 213.5-2.8L214-4.6 215.8-5 214.6-1.5C214.6-1.3 214.7-1.2 214.9-1.1S215.2-1.1 215.3-1.3L216.5-5.2 217.9-5.5 220.4-2.7 219.9-1.2 216.1-0.4C216-0.3 215.9-0.2 215.9 0 215.9 0.1 216 0.2 216.1 0.2 216.2 0.3 216.2 0.3 216.3 0.2L219.7-0.5 219.2 1.1 217.5 1.6C217.4 1.6 217.2 1.7 217.2 1.9 217.3 2.1 217.5 2.2 217.6 2.2L219 1.8 218.4 3.7C218.4 3.8 218.5 4 218.6 4.1 218.8 4.1 219 4 219 3.9L219.6 2 220.5 3.1C220.6 3.1 220.6 3.1 220.7 3.1 220.8 3.2 220.9 3.1 221 3.1 221.1 2.9 221.1 2.8 221 2.6L219.8 1.3 220.4-0.3 222.7 2.3C222.9 2.4 223 2.4 223.1 2.3 223.3 2.2 223.3 2 223.2 1.8L220.6-1 221.1-2.5 224.7-3.3 225.7-2.3 224.4 1.6C224.4 1.8 224.5 1.9 224.6 2 224.8 2 225 1.9 225 1.8L226.1-1.7 227.3-0.4 226.7 1.4C226.7 1.5 226.8 1.7 227 1.8 227.2 1.8 227.3 1.7 227.4 1.6L227.8 0.1 229.2 1.6C229.2 1.6 229.2 1.6 229.3 1.7 229.4 1.7 229.6 1.7 229.6 1.6 229.7 1.5 229.7 1.3 229.6 1.2ZM221.3-3.2L220.9-3.1 220.6-3.4 218.6-5.6 218.4-5.9 218.5-6.2 219.4-9.1 219.5-9.4 219.8-9.5 222.8-10.2 223.1-10.2 223.4-10 225.4-7.8 225.7-7.5 225.6-7.1 224.7-4.3 224.6-4 224.2-3.9 221.3-3.2Z" fill="rgba(13, 40, 58, 0.54)"></path></g><defs><mask id="SvgjsMask1010"><rect width="272" height="75" fill="#ffffff"></rect></mask><filter id="SvgjsFilter1011"><feGaussianBlur stdDeviation="1"></feGaussianBlur></filter></defs></svg>