<svg version="1.1" id="Layer_1" xmlns="http://www.w3.org/2000/svg" xmlns:xlink="http://www.w3.org/1999/xlink" x="0px" y="0px" width="100%" viewBox="0 0 449 150" enable-background="new 0 0 449 150" xml:space="preserve"><path fill="#0E283A" opacity="1.000000" stroke="none" d="
M320.000000,151.000000 
	C214.877014,151.000000 110.254021,150.981781 5.631122,151.079025 
	C2.125257,151.082291 0.868070,150.679474 0.883597,146.634369 
	C1.065197,99.321480 1.041350,52.007534 0.909755,4.694319 
	C0.900692,1.435838 1.813025,0.930710 4.802837,0.932281 
	C151.908051,1.009592 299.013306,1.018650 446.118439,0.892002 
	C449.779633,0.888850 450.086823,1.942412 450.079132,5.115393 
	C449.964600,52.428696 449.948334,99.742531 450.104462,147.055588 
	C450.116119,150.590652 449.253418,151.100586 445.947083,151.089783 
	C404.131744,150.953201 362.315796,151.000000 320.000000,151.000000 
z"></path><path fill="#BEC3C6" opacity="1.000000" stroke="none" d="
M11.862803,86.014694 
	C4.513379,56.325863 26.431538,27.519466 56.451702,25.779896 
	C85.340591,24.105879 110.907715,48.490173 107.855598,79.725197 
	C105.653954,102.256607 86.131531,121.478737 64.399727,123.058693 
	C39.171307,124.892860 18.058250,110.139320 11.862803,86.014694 
z"></path><path fill="#BE4527" opacity="1.000000" stroke="none" d="
M389.126801,85.832878 
	C389.130402,78.711235 389.195312,72.067513 389.105835,65.425858 
	C389.072632,62.962997 389.839050,61.590157 392.497772,61.821987 
	C392.662323,61.836338 392.829926,61.823795 392.995667,61.815006 
	C405.957184,61.127827 406.874420,62.000038 406.872467,75.031700 
	C406.871948,78.519180 406.903076,82.007385 406.843964,85.493973 
	C406.766388,90.070259 404.617645,92.654755 399.811890,92.585846 
	C398.317627,92.564423 396.793243,92.402946 395.333405,92.630745 
	C390.233429,93.426514 388.234711,91.326355 389.126801,85.832878 
z"></path><path fill="#C04627" opacity="1.000000" stroke="none" d="
M260.755646,92.091415 
	C246.979950,93.765572 246.979599,93.765572 246.980118,80.626884 
	C246.980316,75.639717 246.950211,70.652184 247.006454,65.665642 
	C247.020538,64.418091 246.504166,62.433807 248.085388,62.206524 
	C252.507309,61.570942 257.128448,60.981911 261.373840,62.620876 
	C264.967773,64.008347 264.541687,67.712173 264.571838,70.854744 
	C264.618073,75.675117 264.610535,80.496826 264.552002,85.317070 
	C264.518677,88.061211 264.079346,90.670380 260.755646,92.091415 
z"></path><path fill="#BA4527" opacity="1.000000" stroke="none" d="
M306.893768,82.636734 
	C306.910309,85.036606 307.088165,86.862480 309.681396,86.908440 
	C310.847626,86.929115 312.221039,87.042793 312.676208,85.715668 
	C313.272308,83.977753 313.637939,82.217636 311.353180,81.079414 
	C309.423126,80.117912 309.776886,78.044228 310.462830,76.703354 
	C311.596802,74.486763 313.999146,75.570038 315.879730,75.468086 
	C317.529999,75.378632 318.855560,75.972809 318.839386,77.970879 
	C318.813782,81.125664 319.085297,84.325089 318.650574,87.424194 
	C318.034760,91.814400 315.092804,93.007889 307.902893,92.624496 
	C303.797821,92.405594 301.223083,90.725800 301.151794,86.357903 
	C301.073151,81.539345 301.113434,76.718719 301.115417,71.898994 
	C301.119141,62.763969 303.093567,61.115475 312.534546,61.811237 
	C316.918304,62.134300 318.710327,64.533409 318.842285,68.578880 
	C318.888977,70.010300 319.178345,71.812065 316.944550,71.942421 
	C315.364014,72.034645 313.444214,72.527008 313.110535,70.021217 
	C312.755768,67.356750 310.788788,67.588570 308.954620,67.801270 
	C306.906921,68.038742 306.936401,69.709358 306.919403,71.207550 
	C306.877869,74.863487 306.895569,78.520081 306.893768,82.636734 
z"></path><path fill="#BB4527" opacity="1.000000" stroke="none" d="
M367.115723,80.880989 
	C367.120209,76.412857 367.107483,72.426041 367.133850,68.439491 
	C367.161713,64.227432 369.234558,62.104282 373.512146,61.806728 
	C383.034668,61.144337 384.879700,62.809940 384.883392,72.520622 
	C384.885040,76.839554 384.991882,81.162415 384.844452,85.476440 
	C384.648926,91.197830 382.544189,92.712669 375.389557,92.610596 
	C369.033539,92.519913 367.312439,91.016159 367.126709,85.348953 
	C367.083221,84.021408 367.117310,82.691338 367.115723,80.880989 
z"></path><path fill="#BB4527" opacity="1.000000" stroke="none" d="
M340.883484,73.136749 
	C340.869812,77.765800 341.054871,81.929832 340.792908,86.065552 
	C340.454803,91.403778 338.100525,92.818764 330.744568,92.607155 
	C325.092560,92.444565 323.269531,90.888969 323.151031,85.723518 
	C323.025360,80.246033 323.059357,74.763084 323.120056,69.283592 
	C323.183960,63.516129 324.963043,61.905380 331.133789,61.802921 
	C338.611908,61.678749 340.549652,63.136906 340.866394,69.172157 
	C340.927216,70.331596 340.880585,71.496666 340.883484,73.136749 
z"></path><path fill="#BC4527" opacity="1.000000" stroke="none" d="
M279.118561,84.874672 
	C279.120361,78.231445 279.224609,72.066650 279.079376,65.907738 
	C279.009918,62.963478 279.942200,61.600441 283.057465,61.767853 
	C286.378845,61.946339 289.717743,61.839802 293.048157,61.795990 
	C295.248474,61.767048 296.993469,61.978237 296.887238,64.940834 
	C296.794739,67.521164 295.343964,67.945724 293.278564,67.878555 
	C292.280457,67.846085 291.274750,67.814606 290.282043,67.897461 
	C288.137177,68.076469 285.377380,67.089432 285.268280,70.924133 
	C285.165161,74.548012 287.567810,74.353348 289.952545,74.398216 
	C290.784546,74.413864 291.622284,74.409691 292.446350,74.507500 
	C294.335327,74.731689 294.170959,76.211006 294.207764,77.532516 
	C294.248138,78.983719 294.010925,80.207977 292.122803,80.208717 
	C290.625824,80.209305 289.122437,80.242249 287.633575,80.383667 
	C285.697632,80.567551 285.337738,81.974663 285.306763,83.607841 
	C285.274567,85.304794 285.758057,86.610603 287.700897,86.710358 
	C289.528870,86.804214 291.362823,86.792389 293.194305,86.804535 
	C295.108643,86.817230 296.857788,86.805992 296.888275,89.569046 
	C296.916870,92.163712 295.495300,92.626083 293.408264,92.600739 
	C291.076996,92.572433 288.744995,92.609360 286.413330,92.608284 
	C279.132782,92.604935 279.132782,92.603172 279.118561,84.874672 
z"></path><path fill="#BC4527" opacity="1.000000" stroke="none" d="
M167.627136,70.756721 
	C166.178009,77.159355 164.792480,83.147446 163.539948,89.163223 
	C163.075653,91.393181 162.244278,92.704315 159.642807,92.636353 
	C157.049149,92.568596 156.332062,91.211906 155.863663,88.978134 
	C153.954926,79.875465 151.849075,70.814171 149.929947,61.713570 
	C149.613556,60.213238 148.020981,58.002102 151.256592,57.477341 
	C153.878067,57.052185 155.237427,58.090187 155.713364,60.774334 
	C156.753098,66.638123 157.991608,72.466675 160.165741,78.390228 
	C161.382782,72.623886 162.617188,66.861122 163.805771,61.088917 
	C164.141251,59.459679 164.134399,57.671688 166.439774,57.492146 
	C168.718567,57.314667 170.564804,57.546909 169.880646,60.618496 
	C169.158386,63.861183 168.455078,67.108093 167.627136,70.756721 
z"></path><path fill="#BD4527" opacity="1.000000" stroke="none" d="
M240.458862,76.452652 
	C241.565796,80.876686 242.565002,84.902939 243.515900,88.940575 
	C243.839218,90.313469 244.770630,92.031944 242.373398,92.452652 
	C240.692535,92.747635 238.747574,92.761406 238.330933,90.632698 
	C237.752975,87.679771 236.335205,86.555824 233.251953,86.510925 
	C229.952682,86.462891 228.465744,87.687691 227.831543,90.841446 
	C227.393661,93.019020 225.272507,92.717911 223.691513,92.431702 
	C221.150711,91.971756 222.502609,90.162758 222.804382,88.905472 
	C224.701904,80.999458 226.774994,73.134109 228.563171,65.204163 
	C229.156738,62.571808 230.409119,61.799240 232.994507,61.730911 
	C235.833923,61.655869 237.245331,62.602829 237.787476,65.407524 
	C238.479645,68.988304 239.470230,72.511391 240.458862,76.452652 
z"></path><path fill="#C14627" opacity="1.000000" stroke="none" d="
M415.330994,92.573502 
	C412.325806,92.734787 410.865540,92.038849 410.931763,88.986000 
	C411.101501,81.158073 411.040710,73.323517 410.959900,65.492767 
	C410.934937,63.077526 411.560425,61.715313 414.294678,61.805454 
	C418.122925,61.931664 421.958649,61.865280 425.790680,61.830265 
	C427.824860,61.811684 428.879730,62.601051 428.838043,64.777267 
	C428.798401,66.844704 427.905579,67.858582 425.822357,67.841568 
	C423.989777,67.826607 422.153320,67.938126 420.324860,67.854721 
	C418.112946,67.753830 416.991516,68.408012 416.966827,70.921455 
	C416.941101,73.540520 417.931091,74.596397 420.466248,74.425568 
	C421.294647,74.369743 422.132080,74.465767 422.964539,74.449364 
	C424.918884,74.410858 426.039307,75.025719 426.044250,77.303940 
	C426.049103,79.536362 425.082458,80.260635 423.040100,80.181839 
	C421.710571,80.130531 420.374329,80.192421 419.043304,80.252640 
	C416.782135,80.354942 417.054871,82.072578 417.039917,83.538239 
	C417.024628,85.037895 416.875946,86.706589 419.116791,86.757248 
	C421.282013,86.806190 423.448456,86.842285 425.613953,86.826385 
	C427.521149,86.812386 428.815063,87.297203 428.847290,89.588989 
	C428.878357,91.800308 427.766876,92.546867 425.785278,92.548386 
	C422.452789,92.550934 419.120331,92.566879 415.330994,92.573502 
z"></path><path fill="#BD4527" opacity="1.000000" stroke="none" d="
M356.476105,92.562607 
	C345.812225,92.623177 344.974976,91.794365 344.974762,81.551865 
	C344.974701,77.227112 344.826782,72.893631 345.048737,68.579697 
	C345.359467,62.540485 348.895660,60.704971 357.333405,61.930641 
	C361.537537,62.541340 363.859772,66.689339 362.870667,71.411331 
	C362.505951,73.152519 361.516205,73.496964 360.078278,73.541435 
	C358.369049,73.594284 357.063721,73.108521 357.149292,71.086594 
	C357.259918,68.473602 355.980011,67.497948 353.486572,67.682114 
	C350.829376,67.878387 350.906250,69.804001 350.894470,71.658043 
	C350.870117,75.483780 350.865204,79.309982 350.898560,83.135597 
	C350.914886,85.011581 350.937927,86.866310 353.633942,86.964233 
	C355.881714,87.045876 357.198669,86.270355 357.095001,83.889679 
	C356.988403,81.442116 358.227905,80.697128 360.479340,80.838928 
	C362.920441,80.992691 362.838684,82.689476 362.868286,84.394501 
	C362.941772,88.629356 361.935547,92.064217 356.476105,92.562607 
z"></path><path fill="#BC4527" opacity="1.000000" stroke="none" d="
M185.337860,62.130653 
	C189.403732,61.164452 190.381058,62.885788 190.251495,66.273392 
	C190.055222,71.405243 190.389252,76.559219 190.142365,81.686676 
	C189.962570,85.420418 190.926941,87.306320 195.073746,86.876770 
	C196.978836,86.679420 199.703476,85.963150 199.837494,89.477058 
	C199.983200,93.296997 197.132828,92.528389 194.964905,92.584663 
	C184.119644,92.866234 183.962402,92.838501 184.177368,82.007652 
	C184.307648,75.442734 183.159409,68.813988 185.337860,62.130653 
z"></path><path fill="#C24627" opacity="1.000000" stroke="none" d="
M216.811844,86.871292 
	C219.787155,87.311813 219.161148,89.256859 219.024826,90.799271 
	C218.860764,92.655922 217.256271,92.422295 215.967606,92.551025 
	C203.986679,93.747849 203.985733,93.748009 203.987122,81.627159 
	C203.987747,76.134430 204.047394,70.640930 203.969772,65.149345 
	C203.938126,62.910507 204.604279,61.803539 207.075607,61.812313 
	C209.670029,61.821529 210.050446,63.201817 210.025391,65.305237 
	C209.965912,70.297890 210.009705,75.291786 210.013580,80.285179 
	C210.018600,86.763046 210.019363,86.763046 216.811844,86.871292 
z"></path><path fill="#BE4527" opacity="1.000000" stroke="none" d="
M274.873474,70.093025 
	C274.873108,76.376328 274.904236,82.174789 274.855347,87.972580 
	C274.838196,90.008224 275.519653,92.454842 272.032562,92.582436 
	C268.574799,92.708961 268.973083,90.430939 268.974426,88.270592 
	C268.979034,80.815765 268.965820,73.360909 268.984985,65.906136 
	C268.989990,63.965248 268.546631,61.853340 271.739990,61.801334 
	C275.139404,61.745975 274.870392,63.940258 274.870392,66.129013 
	C274.870392,67.288651 274.872406,68.448288 274.873474,70.093025 
z"></path><path fill="#BE4527" opacity="1.000000" stroke="none" d="
M173.803818,86.793999 
	C173.804657,79.676758 173.767624,73.030106 173.829803,66.384392 
	C173.848694,64.366867 173.146637,61.884941 176.692200,61.809425 
	C180.542191,61.727421 179.839691,64.391869 179.854950,66.601616 
	C179.902023,73.413742 179.969910,80.228577 179.816315,87.037544 
	C179.768021,89.178642 181.222504,92.427879 176.947556,92.551514 
	C172.662994,92.675438 174.107941,89.466972 173.803818,86.793999 
z"></path><path fill="#183142" opacity="1.000000" stroke="none" d="
M68.743927,65.655518 
	C68.858459,63.858986 68.466202,61.787094 71.055054,63.390678 
	C75.859222,66.366470 80.737267,69.233521 85.421814,72.387543 
	C87.792000,73.983345 87.602295,76.035439 85.068054,77.467194 
	C79.910393,80.381111 74.689598,83.183289 68.955124,86.327415 
	C67.932587,77.209084 77.031570,79.014587 80.026772,74.443497 
	C77.811317,72.169662 74.575180,71.216911 71.965202,69.343048 
	C70.702393,68.436394 68.627571,68.281555 68.743927,65.655518 
z"></path><path fill="#183142" opacity="1.000000" stroke="none" d="
M31.673801,74.258133 
	C36.964695,69.002701 43.512562,66.157425 49.906624,61.791611 
	C50.617077,71.157249 41.439320,70.015404 38.365368,74.531212 
	C41.285572,79.067932 50.632023,77.154442 49.838554,86.515076 
	C43.797810,83.198753 38.298332,80.175430 32.793827,77.161301 
	C31.752378,76.591034 31.638948,75.625351 31.673801,74.258133 
z"></path><path fill="#163041" opacity="1.000000" stroke="none" d="
M63.034321,70.150848 
	C61.296913,76.117577 59.453796,81.641434 58.065655,87.277344 
	C57.180973,90.869202 55.495659,91.983963 51.867546,90.521873 
	C54.895065,80.477150 58.013786,70.515953 60.838520,60.472076 
	C61.501076,58.116230 62.675110,57.449738 64.717094,57.812088 
	C67.727829,58.346336 65.859024,60.466000 65.604134,61.673645 
	C65.024498,64.419914 63.978027,67.067642 63.034321,70.150848 
z"></path><path fill="#10293A" opacity="1.000000" stroke="none" d="
M395.500000,86.109291 
	C395.169678,80.799042 395.116486,75.838692 395.020416,70.879166 
	C394.984222,69.012123 395.321838,67.604065 397.669128,67.670464 
	C399.908966,67.733833 401.000854,68.727516 400.974243,71.018562 
	C400.931946,74.659447 400.833313,78.308441 401.017792,81.940834 
	C401.218445,85.890533 399.805634,87.618431 395.500000,86.109291 
z"></path><path fill="#192A39" opacity="1.000000" stroke="none" d="
M254.161652,67.709930 
	C257.056854,67.359856 258.838593,68.031525 258.829712,70.989639 
	C258.817230,75.139793 258.823883,79.289993 258.824280,83.440178 
	C258.824524,85.642159 257.857300,86.792114 255.525650,86.831810 
	C253.054230,86.873894 252.881760,85.290192 253.012680,83.531731 
	C253.401871,78.304222 252.024063,72.990891 254.161652,67.709930 
z"></path><path fill="#0F283A" opacity="1.000000" stroke="none" d="
M372.900024,71.260170 
	C372.861603,68.034439 374.519073,67.505577 376.822876,67.733498 
	C378.842346,67.933304 379.087250,69.350395 379.091431,70.928726 
	C379.102783,75.223526 379.089874,79.518379 379.086945,83.813217 
	C379.085632,85.759636 378.325043,86.907730 376.172333,86.942459 
	C373.833771,86.980164 372.894897,85.844460 372.903412,83.626396 
	C372.918610,79.661964 372.895538,75.697380 372.900024,71.260170 
z"></path><path fill="#0F283A" opacity="1.000000" stroke="none" d="
M328.967712,84.467667 
	C328.911987,79.718384 328.928192,75.421730 328.889221,71.125565 
	C328.869873,68.990036 329.544617,67.673965 331.983124,67.668114 
	C334.405914,67.662300 335.129089,68.935959 335.110535,71.092003 
	C335.074951,75.222992 335.114319,79.354576 335.089447,83.485718 
	C335.081451,84.816612 335.074432,86.321983 333.435364,86.695801 
	C331.649811,87.103027 329.732544,87.380936 328.967712,84.467667 
z"></path><path fill="#202B38" opacity="1.000000" stroke="none" d="
M232.048462,73.757439 
	C232.164398,73.250237 232.187988,73.074837 232.275009,72.940529 
	C232.791199,72.143768 233.562500,71.500732 233.851639,72.909256 
	C234.366425,75.417053 236.009628,77.895538 234.724091,80.515572 
	C234.275131,81.430573 232.888245,81.262421 231.982788,80.902641 
	C230.211441,80.198792 231.061844,78.680443 231.203171,77.479004 
	C231.337097,76.340492 231.714905,75.230667 232.048462,73.757439 
z"></path></svg>